<svg xmlns="http://www.w3.org/2000/svg" width="16" height="17" viewBox="0 0 16 17" fill="none">
<g clip-path="url(#clip0_8552_34475)">
<path fill-rule="evenodd" clip-rule="evenodd" d="M8 2.21429C6.33292 2.21429 4.73413 2.87653 3.55533 4.05533C2.37653 5.23413 1.71429 6.83292 1.71429 8.5C1.71429 10.1671 2.37653 11.7659 3.55533 12.9447C4.73413 14.1235 6.33292 14.7857 8 14.7857C9.66708 14.7857 11.2659 14.1235 12.4447 12.9447C13.6235 11.7659 14.2857 10.1671 14.2857 8.5C14.2857 6.83292 13.6235 5.23413 12.4447 4.05533C11.2659 2.87653 9.66708 2.21429 8 2.21429ZM8.85714 13.0429V11.3286H7.14286V13.0429H8.85714ZM8.85714 9.9V4.18571H7.14286V9.9H8.85714Z" fill="#F45C5C"/>
<path fill-rule="evenodd" clip-rule="evenodd" d="M8 0.5C10.1217 0.5 12.1566 1.34285 13.6569 2.84315C15.1571 4.34344 16 6.37827 16 8.5C16 10.6217 15.1571 12.6566 13.6569 14.1569C12.1566 15.6571 10.1217 16.5 8 16.5C5.87827 16.5 3.84344 15.6571 2.34315 14.1569C0.842854 12.6566 0 10.6217 0 8.5C0 6.37827 0.842854 4.34344 2.34315 2.84315C3.84344 1.34285 5.87827 0.5 8 0.5ZM8 2.21429C6.33292 2.21429 4.73413 2.87653 3.55533 4.05533C2.37653 5.23413 1.71429 6.83292 1.71429 8.5C1.71429 10.1671 2.37653 11.7659 3.55533 12.9447C4.73413 14.1235 6.33292 14.7857 8 14.7857C9.66708 14.7857 11.2659 14.1235 12.4447 12.9447C13.6235 11.7659 14.2857 10.1671 14.2857 8.5C14.2857 6.83292 13.6235 5.23413 12.4447 4.05533C11.2659 2.87653 9.66708 2.21429 8 2.21429Z" fill="#F45C5C"/>
</g>
<defs>
<clipPath id="clip0_8552_34475">
<rect width="16" height="16" fill="white" transform="translate(0 0.5)"/>
</clipPath>
</defs>
</svg>